<?xml version="1.0" standalone="no"?>
<!DOCTYPE svg PUBLIC "-//W3C//DTD SVG 20010904//EN"
 "http://www.w3.org/TR/2001/REC-SVG-20010904/DTD/svg10.dtd">
<svg version="1.0" xmlns="http://www.w3.org/2000/svg"
 width="321.000000pt" height="321.000000pt" viewBox="0 0 321.000000 321.000000"
 preserveAspectRatio="xMidYMid meet">
<metadata>
Created by potrace 1.14, written by Peter Selinger 2001-2017
</metadata>
<g transform="translate(0.000000,321.000000) scale(0.100000,-0.100000)"
fill="#000000" stroke="none">
<path d="M1655 3194 c-217 -53 -389 -228 -440 -448 -67 -290 95 -624 373 -765
24 -12 93 -40 153 -61 114 -41 171 -74 227 -131 85 -86 130 -229 109 -343 -28
-159 -156 -268 -317 -272 -125 -4 -234 55 -296 161 -36 63 -44 97 -45 215 -2
125 -16 166 -66 186 -56 24 -112 4 -139 -48 -14 -27 -16 -53 -11 -163 5 -122
19 -194 49 -255 38 -77 148 -210 175 -210 7 0 13 -4 13 -9 0 -11 100 -59 165
-78 67 -20 183 -24 250 -8 30 7 55 10 55 7 0 -2 6 0 13 5 6 6 26 15 44 21 50
17 146 86 193 139 51 58 103 151 121 218 15 53 19 216 7 275 -22 111 -84 225
-170 315 -38 38 -68 70 -68 71 0 5 546 -2 550 -7 7 -11 4 -586 -4 -644 -43
-317 -262 -581 -562 -679 -468 -152 -957 130 -1070 619 -4 17 -9 154 -11 305
-2 151 -8 303 -13 336 -35 213 -216 375 -436 390 -40 3 -58 -1 -85 -19 -93
-63 -41 -197 76 -197 90 0 201 -88 224 -178 5 -20 12 -167 14 -327 3 -159 7
-299 10 -310 3 -11 10 -42 17 -70 48 -216 185 -434 361 -576 49 -40 193 -129
208 -129 23 0 17 -16 -6 -18 -41 -3 -106 -36 -142 -73 -72 -72 -93 -182 -51
-276 40 -91 113 -142 214 -150 54 -5 72 -2 117 20 76 36 128 97 144 167 18 81
-3 172 -54 229 -27 31 -23 34 20 19 50 -19 358 -16 427 4 52 15 65 11 37 -12
-22 -18 -55 -75 -63 -107 -28 -123 27 -246 136 -299 50 -26 173 -26 220 -1
124 67 175 224 113 345 -39 77 -157 149 -222 137 -29 -6 -23 -1 47 36 186 99
347 263 440 449 39 77 82 197 90 250 3 19 9 53 14 74 5 21 9 234 10 472 l1
434 -23 1 c-13 0 -288 1 -613 1 l-590 0 -46 49 c-84 87 -132 209 -131 333 1
152 78 273 218 342 53 26 69 29 159 29 88 0 106 -3 155 -27 91 -45 165 -126
200 -218 7 -19 16 -97 19 -172 6 -126 8 -138 30 -162 47 -50 134 -42 171 17
19 30 22 201 5 300 -37 215 -192 391 -403 458 -86 27 -234 33 -317 13z"/>
</g>
</svg>
