<svg xmlns="http://www.w3.org/2000/svg" viewBox="0 0 593.78 593.78"><defs><style>.cls-1{fill:#cd5747;}.cls-2{fill:#fff;}.cls-3{fill:#e9af58;}.cls-4{fill:#d9942d;}</style></defs><g id="Layer_2" data-name="Layer 2"><g id="Layer_1-2" data-name="Layer 1"><path class="cls-1" d="M593.78,296.89c0,136.44-92,251.4-217.44,286.13a298.15,298.15,0,0,1-197.76-13.75C73.49,523.56,0,418.81,0,296.89,0,132.92,132.92,0,296.89,0S593.78,132.92,593.78,296.89Z"/><path class="cls-2" d="M544.89,296.89c0,114-76.89,210-181.63,239a249.05,249.05,0,0,1-165.19-11.48C110.28,486.23,48.89,398.73,48.89,296.89c0-137,111-248,248-248S544.89,159.93,544.89,296.89Z"/><path class="cls-3" d="M397.36,203.79l-91.9-91.9a12.11,12.11,0,0,0-17.13,0l-91.9,91.9a12.12,12.12,0,0,0-3.55,8.57v261A12.11,12.11,0,0,0,205,485.44H388.8a12.11,12.11,0,0,0,12.11-12.11v-261A12.12,12.12,0,0,0,397.36,203.79ZM296.89,154.67a15.74,15.74,0,1,1-15.74,15.74A15.74,15.74,0,0,1,296.89,154.67Z"/><path class="cls-2" d="M383.18,431a22.34,22.34,0,0,0-44.39,2.76l0,0A22.33,22.33,0,1,0,383.18,431ZM371,441.7a12.3,12.3,0,1,1-9.43-19.5,12.23,12.23,0,0,1,11,8A12.44,12.44,0,0,1,371,441.7Zm-6.27-82.31-69.22,93.79,12.83.46,69.17-93.81Zm-30.1,15.73A22.31,22.31,0,1,0,332.89,388,22.29,22.29,0,0,0,334.65,375.12Zm-10.88,8.69a12.26,12.26,0,0,1-2.82,3.91,12.34,12.34,0,1,1,3.92-8.55v0A12.21,12.21,0,0,1,323.77,383.81Z"/><path class="cls-4" d="M296.89,143.34A27.07,27.07,0,1,0,324,170.41,27.07,27.07,0,0,0,296.89,143.34Zm0,42.81a15.74,15.74,0,1,1,15.75-15.74A15.74,15.74,0,0,1,296.89,186.15Z"/><line class="cls-1" x1="503.48" y1="90.3" x2="90.3" y2="503.48"/><rect class="cls-1" x="4.72" y="271.89" width="584.34" height="50" transform="translate(-122.98 296.89) rotate(-45)"/></g></g></svg>