<svg xmlns="http://www.w3.org/2000/svg" viewBox="0 0 691.58 608.5"><defs><style>.cls-1{fill:#5ab2ac;}.cls-2{fill:#208b85;}.cls-3{fill:#399c97;}.cls-4{fill:#6b7177;}</style></defs><g id="Layer_2" data-name="Layer 2"><g id="Layer_1-2" data-name="Layer 1"><polygon class="cls-1" points="448.84 59.13 448.92 177.5 346.44 236.75 346.37 118.38 448.84 59.13"/><polygon class="cls-2" points="346.37 118.38 346.44 236.75 243.89 177.62 243.82 59.25 346.37 118.38"/><polygon class="cls-3" points="448.84 59.13 346.37 118.38 243.82 59.25 346.3 0 448.84 59.13"/><polygon class="cls-1" points="205.03 245.63 205.03 364 102.51 423.19 102.51 304.82 205.03 245.63"/><polygon class="cls-2" points="589.04 304.82 589.11 423.19 486.56 364.06 486.49 245.69 589.04 304.82"/><path class="cls-4" d="M403.33,516a7,7,0,0,1-4-1.25L152,344.18a7.07,7.07,0,0,1,8-11.64L407.35,503.08a7.07,7.07,0,0,1-4,12.89Z"/><path class="cls-4" d="M286.22,516a7.07,7.07,0,0,1-4-12.89L529.57,332.54a7.07,7.07,0,0,1,8,11.64L290.23,514.72A7,7,0,0,1,286.22,516Z"/><path class="cls-4" d="M647.17,328.89a7,7,0,0,1-4-1.25L395.8,157.1a7.07,7.07,0,0,1,8-11.64L651.19,316a7.07,7.07,0,0,1-4,12.89Z"/><path class="cls-4" d="M42.38,328.89a7.07,7.07,0,0,1-4-12.89L285.73,145.46a7.07,7.07,0,0,1,8,11.64L46.38,327.64A7,7,0,0,1,42.38,328.89Z"/><polygon class="cls-3" points="205.03 245.63 102.51 304.82 0 245.63 102.51 186.44 205.03 245.63"/><polygon class="cls-2" points="102.51 304.82 102.51 423.19 0 364 0 245.63 102.51 304.82"/><polygon class="cls-3" points="447.7 430.94 345.18 490.13 242.67 430.94 345.18 371.75 447.7 430.94"/><polygon class="cls-2" points="345.18 490.13 345.18 608.5 242.67 549.31 242.67 430.94 345.18 490.13"/><polygon class="cls-1" points="447.7 430.94 447.7 549.31 345.18 608.5 345.18 490.13 447.7 430.94"/><polygon class="cls-3" points="691.51 245.57 589.04 304.82 486.49 245.69 588.97 186.44 691.51 245.57"/><polygon class="cls-1" points="691.51 245.57 691.58 363.94 589.11 423.19 589.04 304.82 691.51 245.57"/></g></g></svg>