<svg width="4142" height="4142" viewBox="0 0 4142 4142" fill="none" xmlns="http://www.w3.org/2000/svg">
<g clip-path="url(#clip0_251_136)">
<path d="M4142 2071C4142 3214.77 3214.77 4142 2071 4142C1523.32 4142.32 997.834 3925.56 609.655 3539.2C221.477 3152.84 2.25233 2628.38 0 2080.71C0 2077.49 0 2074.22 0 2071C0 1521.74 218.193 994.969 606.581 606.581C994.969 218.193 1521.74 0 2071 0C3214.77 0 4142 927.227 4142 2071Z" fill="#EFF0F1"/>
<path d="M2071.05 324.613H475.188V3516.34H2071.05V324.613Z" fill="#E9AF58"/>
<path d="M3666.86 324.613H2071V3516.34H3666.86V324.613Z" fill="#E0A143"/>
<path d="M2491.58 324.613H1650.52V1165.68H2491.58V324.613Z" fill="#CD5747"/>
<path d="M1265.34 698.898H806.084C783.61 698.898 765.391 717.118 765.391 739.592V1417.57C765.391 1440.05 783.61 1458.27 806.084 1458.27H1265.34C1287.81 1458.27 1306.03 1440.05 1306.03 1417.57V739.592C1306.03 717.118 1287.81 698.898 1265.34 698.898Z" fill="white"/>
<path d="M971.967 777.844H820.094V954.009H971.967V777.844Z" fill="#D2D5D9"/>
<path d="M1233.2 783.918H1044.84C1028.07 783.918 1014.48 797.513 1014.48 814.282C1014.48 831.052 1028.07 844.647 1044.84 844.647H1233.2C1249.97 844.647 1263.57 831.052 1263.57 814.282C1263.57 797.513 1249.97 783.918 1233.2 783.918Z" fill="#D2D5D9"/>
<path d="M1263.57 1148.39H820.094V1373.14H1263.57V1148.39Z" fill="#D2D5D9"/>
<path d="M1252.73 2756.87L1760.3 2717C1871.5 2708.28 1982.27 2738.62 2073.49 2802.8L2592.54 3167.9C2600.55 3173.52 2606.66 3181.43 2610.08 3190.59C2613.5 3199.75 2614.07 3209.73 2611.7 3219.21C2609.33 3228.7 2604.15 3237.25 2596.83 3243.73C2589.51 3250.21 2580.39 3254.32 2570.69 3255.52C2525 3261.23 2478.62 3257.48 2434.44 3244.51L2223.6 3182.54L2521.43 3498.53C2532.21 3509.99 2539.7 3524.13 2543.11 3539.49C2546.52 3554.84 2545.73 3570.83 2540.81 3585.76C2535.89 3600.7 2527.04 3614.04 2515.18 3624.36C2503.32 3634.69 2488.89 3641.63 2473.42 3644.44L2232.89 3688.09C2070.73 3717.52 1904.07 3710.77 1744.82 3668.33C1585.56 3625.89 1437.65 3548.81 1311.64 3442.58L1012.25 3190.22L1252.73 2756.87Z" fill="#E9B99E"/>
<path d="M1285.63 2660.53L1017.33 3255.26L1015.52 3259.15L990.551 3314.48L969.478 3361.46L841.949 3304L255.944 3039.54L235.182 3030.2C81.788 2737.14 1.17519 2411.48 0.15625 2080.71L314.545 2222.56L1285.63 2660.53Z" fill="#399C97"/>
</g>
<defs>
<clipPath id="clip0_251_136">
<rect width="4142" height="4142" fill="white"/>
</clipPath>
</defs>
</svg>
