<svg width="6238" height="4546" viewBox="0 0 6238 4546" fill="none" xmlns="http://www.w3.org/2000/svg">
<g clip-path="url(#clip0_251_106)">
<path d="M1706.76 4423.51C1786.03 4281.14 1471.28 3954.68 1003.75 3694.35C536.224 3434.01 92.9561 3338.38 13.6859 3480.74C-65.5843 3623.11 249.163 3949.56 716.692 4209.9C1184.22 4470.23 1627.49 4565.87 1706.76 4423.51Z" fill="#E9AF58"/>
<path d="M1394.73 3821.77C1544.35 3970.72 1654.76 4141.56 1705.08 4287.65C1732.05 4359.69 1784.26 4419.5 1852.01 4455.96L1828.45 4493.83C1779.04 4480.87 1728.01 4475.2 1676.97 4476.99C1623.28 4479.01 1594.17 4488.94 1512.2 4493.83C1512.2 4493.83 1472.82 4493.83 1424.52 4493.83C1240.34 4493.28 1057.81 4459.05 885.947 4392.84C747.354 4333.43 621.607 4247.7 515.68 4140.38C723.816 4085.33 941.482 4076.54 1153.38 4114.63C976.493 3919.22 867.265 3697.73 868.106 3548.27C995.007 3527.06 1200.51 3628.39 1394.73 3821.77Z" fill="#399C97"/>
<path d="M3393.67 1144.49C3816.57 1266.19 4265.2 1266.19 4688.09 1144.49C5551.15 893.547 6024.59 213.246 6161.59 0C6202.15 196.584 6503.92 1781.04 5540.05 3100.74C4804.06 4108.4 3802.31 4314.91 3544.13 4359.18L3393.67 1144.49Z" fill="#BF8563"/>
<path d="M3014.99 4476.99C3967.74 4476.99 4740.1 3704.61 4740.1 2751.84C4740.1 1799.06 3967.74 1026.68 3014.99 1026.68C2062.23 1026.68 1289.88 1799.06 1289.88 2751.84C1289.88 3704.61 2062.23 4476.99 3014.99 4476.99Z" fill="#DEAC90"/>
<path d="M3006.58 4220.32C3815.25 4220.32 4470.82 3564.74 4470.82 2756.04C4470.82 1947.34 3815.25 1291.76 3006.58 1291.76C2197.9 1291.76 1542.34 1947.34 1542.34 2756.04C1542.34 3564.74 2197.9 4220.32 3006.58 4220.32Z" fill="#975D48"/>
<path d="M4396.93 2846.09C4518.45 3182.71 4334.66 3556.69 3986.1 3682.75C3637.54 3808.81 3256.67 3638.65 3135.16 3302.71C3078.69 3145.86 3086.37 2973.07 3156.53 2821.85C3172.58 2787.87 3181.78 2751.05 3183.6 2713.51C3185.42 2675.96 3179.83 2638.43 3167.14 2603.05V2601.87C3072.22 2339.48 3164.61 2065.64 3373.65 1989.91C3582.68 1914.17 3829.24 2065.64 3924.17 2327.87V2329.05C3937.04 2364.5 3956.8 2397.05 3982.31 2424.84C4007.81 2452.63 4038.56 2475.1 4072.78 2490.96C4223.37 2562.05 4339.84 2689.66 4396.93 2846.09Z" fill="#D9942D"/>
<path d="M3309.52 2087.02C3273.05 1982.25 3201.76 1893.14 3107.55 1834.56C3041.23 1794.54 2966.1 1771.42 2888.76 1767.23V1716.74C2999.45 1715.88 3108.53 1743.25 3205.71 1796.26C3302.89 1849.26 3384.95 1926.16 3444.16 2019.7C3438.26 2039.53 3426.53 2057.12 3410.5 2070.19C3396.09 2080.56 3379.48 2087.47 3361.97 2090.39C3344.46 2093.31 3326.51 2092.16 3309.52 2087.02Z" fill="#6D493C"/>
<path d="M3107.55 1800.9C3042.76 1761.85 2939.25 1817.73 2896 1886.06C2848.37 1960.28 2858.97 2067.16 2922.42 2154.34C2938.72 2116.97 2961.52 2082.78 2989.74 2053.36C3066.32 1974.08 3141.21 1976.44 3158.04 1918.71C3170.33 1875.96 3144.08 1822.94 3107.55 1800.9Z" fill="#399C97"/>
<path d="M2703.63 2263.07C2787.78 2455.95 2722.31 2669.7 2559.05 2740.39C2504.45 2764 2443.82 2769.89 2385.7 2757.22C2398.5 2755.39 2411.11 2752.46 2423.4 2748.47C2593.56 2695.96 2681.41 2490.62 2619.47 2289.83C2599.42 2223.97 2563.94 2163.84 2515.97 2114.45L2569.66 2091.06C2628.38 2135.9 2674.53 2195.15 2703.63 2263.07Z" fill="#6D493C"/>
<path d="M2619.47 2288.99C2681.41 2489.78 2593.56 2695.12 2423.4 2747.63C2411.11 2751.62 2398.5 2754.54 2385.7 2756.38C2333.49 2745.06 2284.52 2722.04 2242.48 2689.06C2259.7 2684.29 2276.57 2678.33 2292.97 2671.22C2381.72 2632.83 2452.52 2562.07 2490.94 2473.34C2529.37 2384.6 2532.54 2284.55 2499.81 2193.56C2497.12 2185.82 2494.09 2178.24 2490.89 2170.67C2485.23 2157.72 2478.88 2145.08 2471.87 2132.8L2515.97 2113.78C2563.91 2163.12 2599.4 2223.19 2619.47 2288.99Z" fill="#975D48"/>
<path d="M4022.28 3523.53C4025.04 3676.79 3992.06 3828.58 3925.98 3966.89C3859.9 4105.2 3762.52 4226.22 3641.56 4320.37C3520.6 4414.52 3379.38 4479.21 3229.08 4509.31C3078.79 4539.42 2923.55 4534.12 2775.66 4493.82C2723.75 4521.05 2666.21 4535.81 2607.61 4536.92C2549 4538.03 2490.94 4525.46 2438.04 4500.22C2291.83 4546.11 2136.94 4557.31 1985.66 4532.92C1834.37 4508.54 1690.84 4449.24 1566.46 4359.73C1442.08 4270.22 1340.26 4152.96 1269.08 4017.25C1197.9 3881.54 1159.31 3731.11 1156.38 3577.9C1153.45 3424.68 1186.26 3272.89 1252.2 3134.56C1318.15 2996.22 1415.41 2875.16 1536.28 2780.96C1657.15 2686.76 1798.31 2622.02 1948.55 2591.87C2098.8 2561.72 2254 2566.99 2401.86 2607.26C2453.8 2580.03 2511.36 2565.27 2569.99 2564.16C2628.62 2563.05 2686.71 2575.62 2739.64 2600.86C2885.9 2554.97 3040.85 2543.77 3192.19 2568.14C3343.53 2592.52 3487.13 2651.8 3611.58 2741.3C3736.04 2830.79 3837.95 2948.04 3909.24 3083.76C3980.52 3219.47 4019.23 3369.92 4022.28 3523.19V3523.53Z" fill="#E9AF58"/>
<path d="M3691.23 4251.29C3704.48 4249.4 3717.59 4246.59 3730.45 4242.88C3607.28 4364.75 3454.22 4452.09 3286.64 4496.14C3119.06 4540.18 2942.84 4539.39 2775.66 4493.82C2723.75 4521.05 2666.21 4535.81 2607.61 4536.92C2549 4538.03 2490.95 4525.46 2438.04 4500.22C2272.81 4552 2096.87 4559.44 1927.85 4521.81C1758.84 4484.18 1602.67 4402.79 1475.01 4285.8C1487.97 4288.98 1501.13 4291.29 1514.4 4292.7C1538.43 4295.15 1562.67 4294.7 1586.6 4291.35C1522.81 4181.44 1362.76 3870.58 1426.54 3465.63C1463.75 3241.37 1559.29 3030.84 1703.57 2855.18C1604.91 3030.25 1544.23 3224.14 1525.5 3424.23C1501.44 3703.62 1544.69 4221 1830.97 4312.89C1916.47 4340.5 2000.29 4322.49 2047.24 4308.85C1929.5 4073.75 1879.55 3810.5 1903.01 3548.61C1930.43 3273.11 2035.48 3011.05 2205.95 2792.9C2104.97 2981.75 2002.98 3256.76 2018.97 3585.8C2035.8 3933.02 2179.36 4242.2 2321.07 4303.64C2406.23 4338.66 2496.72 4358.98 2588.68 4363.72H2618.47C2710.11 4355.52 2799.69 4331.79 2883.38 4293.54C3022.56 4226.21 3154.51 3912.49 3158.05 3564.76C3161.41 3235.39 3048.48 2964.41 2941.11 2779.61C3119.74 2991.09 3234.66 3248.95 3272.49 3523.19C3305.95 3783.98 3266.09 4048.93 3157.37 4288.32C3204.67 4300.27 3289.16 4314.91 3373.65 4284.28C3656.4 4181.44 3679.79 3662.89 3644.95 3384.51C3619.15 3185.34 3551.65 2993.85 3446.85 2822.53C3597.62 2992.42 3701.15 3198.92 3747.11 3421.37C3826.21 3823.12 3678.28 4140.38 3618.7 4252.64C3642.84 4255.16 3667.2 4254.71 3691.23 4251.29Z" fill="#D9942D"/>
<path d="M4235.19 4546C4522.41 4546 4755.25 4313.15 4755.25 4025.93C4755.25 3738.7 4522.41 3505.86 4235.19 3505.86C3947.97 3505.86 3715.13 3738.7 3715.13 4025.93C3715.13 4313.15 3947.97 4546 4235.19 4546Z" fill="#DE6A5A"/>
<path d="M4539.07 3726.69C4555.94 3697.47 4519.24 3644.69 4457.09 3608.81C4394.95 3572.93 4330.9 3567.53 4314.02 3596.76C4297.15 3625.98 4333.85 3678.75 4396 3714.63C4458.14 3750.51 4522.2 3755.91 4539.07 3726.69Z" fill="#CD5747"/>
<path d="M4413.93 3646.56C4415.91 3649.16 4418.04 3651.63 4420.32 3653.97C4429.72 3662.66 4441.39 3668.5 4453.98 3670.8C4462.93 3649.31 4476.42 3630.02 4493.54 3614.25C4506.06 3602.89 4520.25 3593.53 4535.61 3586.48C4537.3 3578.73 4538.81 3570.99 4540.49 3563.25C4517.37 3566.48 4495.12 3574.26 4475.02 3586.14C4450.06 3601.02 4429.09 3621.76 4413.93 3646.56Z" fill="#975D48"/>
<path d="M4518.78 3574.02C4495.89 3592.53 4446.58 3563.59 4441.19 3560.39C4377.24 3523.02 4361.75 3444.76 4357.04 3419.01C4365.96 3419.01 4466.6 3410.43 4508.51 3476.07C4529.72 3506.36 4539.99 3556.85 4518.78 3574.02Z" fill="#399C97"/>
</g>
<defs>
<clipPath id="clip0_251_106">
<rect width="6238" height="4546" fill="white"/>
</clipPath>
</defs>
</svg>
