<svg xmlns="http://www.w3.org/2000/svg" viewBox="0 0 646.42 567.74"><defs><style>.cls-1{fill:#6b7177;}.cls-2{fill:#cd5747;}.cls-3{fill:#d2d5d9;}.cls-4{fill:#b6babf;}.cls-5{fill:#828a91;}</style></defs><g id="Layer_2" data-name="Layer 2"><g id="Layer_1-2" data-name="Layer 1"><rect class="cls-1" y="423.94" width="646.42" height="33.6" rx="16.8"/><path class="cls-2" d="M499,35.24a119.3,119.3,0,0,0-169.46,0l-6.76,7L316,35.48a119.49,119.49,0,0,0-169,169L310.48,368.37a18.12,18.12,0,0,0,25.59,0L499.49,204.46A120.7,120.7,0,0,0,499,35.24Z"/><path class="cls-3" d="M302.15,262.65a9.05,9.05,0,0,1-8.32-5.48l-29.24-68.23H228.43a9.06,9.06,0,0,1,0-18.11h42.13a9.06,9.06,0,0,1,8.32,5.49l21.56,50.31,35.13-122.95a9.05,9.05,0,0,1,17-1.08l29.24,68.23H418a9.06,9.06,0,0,1,0,18.11H375.87a9,9,0,0,1-8.32-5.49L346,133.14l-35.13,123a9,9,0,0,1-8.13,6.54A5.43,5.43,0,0,1,302.15,262.65Z"/><path class="cls-4" d="M80.46,350h43.18a0,0,0,0,1,0,0V531.45a0,0,0,0,1,0,0H80.46a36.11,36.11,0,0,1-36.11-36.11V386.14A36.11,36.11,0,0,1,80.46,350Z"/><rect class="cls-5" x="95.42" y="313.74" width="79.29" height="254" rx="31.44"/><path class="cls-4" d="M558.9,350h43.18a0,0,0,0,1,0,0V531.45a0,0,0,0,1,0,0H558.9a36.11,36.11,0,0,1-36.11-36.11V386.14A36.11,36.11,0,0,1,558.9,350Z" transform="translate(1124.86 881.48) rotate(180)"/><rect class="cls-5" x="471.71" y="313.74" width="79.29" height="254" rx="31.44" transform="translate(1022.72 881.48) rotate(180)"/></g></g></svg>