<svg width="4158" height="3987" viewBox="0 0 4158 3987" fill="none" xmlns="http://www.w3.org/2000/svg">
<g clip-path="url(#clip0_251_147)">
<path d="M2079.03 3987C3179.86 3987 4072.27 3094.48 4072.27 1993.5C4072.27 892.52 3179.86 0 2079.03 0C978.187 0 85.7812 892.52 85.7812 1993.5C85.7812 3094.48 978.187 3987 2079.03 3987Z" fill="#EFF0F1"/>
<path d="M3412.61 2859.98C3412.61 2920.33 3412.11 2980 3411.1 3039C3410.87 3051.76 3410.64 3064.61 3410.36 3077.46C3409.35 3128.69 3407.88 3179.09 3406.23 3228.94C3405.36 3253.91 3404.4 3278.51 3403.34 3303.16C3402.29 3327.81 3401.09 3352.14 3399.9 3376.24C3399.81 3376.49 3399.81 3376.76 3399.9 3377.02C3399.03 3394.37 3398.16 3411.81 3397.1 3428.88C3396.14 3446.05 3395.17 3462.99 3394.16 3479.83C3394.12 3479.91 3394.09 3480 3394.09 3480.09C3394.09 3480.18 3394.12 3480.26 3394.16 3480.34C3382.69 3663.53 3366.4 3834.1 3346.16 3987H1919.35C1895.31 3805.73 1876.9 3599.64 1865.52 3376.92C1865.42 3376.67 1865.42 3376.39 1865.52 3376.14C1860.65 3279.43 1857.12 3179.59 1855.05 3077.28C1855.05 3064.61 1854.55 3051.57 1854.32 3038.81C1853.28 2980.67 1852.78 2921.95 1852.81 2862.64C1852.81 2789.84 1853.52 2718.08 1854.96 2647.37C1855.45 2623.5 1856.02 2599.8 1856.66 2576.26C1866.07 2222.82 1893.06 1901.24 1932.57 1639.88H3332.89C3372.41 1901.1 3399.35 2222.82 3408.8 2576.26C3409.44 2599.81 3409.99 2623.59 3410.45 2647.37C3411.92 2717.29 3412.64 2788.16 3412.61 2859.98Z" fill="#E0A143"/>
<path d="M3396.59 1448.01L3332.84 1640.01H1932.52L1868.77 1448.01H3396.59Z" fill="#BF8563"/>
<path d="M2632.71 2520.04C2924.28 2520.04 3160.65 2376.76 3160.65 2200.01C3160.65 2023.27 2924.28 1879.99 2632.71 1879.99C2341.14 1879.99 2104.77 2023.27 2104.77 2200.01C2104.77 2376.76 2341.14 2520.04 2632.71 2520.04Z" fill="#E9B99E"/>
<path d="M1517.81 2058.13V3987L745.25 3982.41C745.464 3805.11 745.71 3627.79 745.985 3450.46V2058.13C745.985 2038.48 746.918 2018.93 748.784 1999.47C754.437 1939.43 768.736 1880.53 791.237 1824.58C820.957 1750.84 864.779 1683.61 920.249 1626.66C942.486 1603.82 962.169 1578.62 978.95 1551.52C1022.79 1480.62 1045.99 1398.9 1045.96 1315.54V852.299H1245.47V1315.54C1245.47 1330.91 1246.2 1346.24 1247.58 1361.44C1253.56 1428.19 1273.54 1492.92 1306.23 1551.42C1321.3 1578.31 1339.21 1603.5 1359.65 1626.56C1373.91 1642.68 1387.29 1659.53 1399.77 1677.06C1431.81 1722.56 1457.71 1772.08 1476.82 1824.35C1504.11 1899.27 1517.99 1978.4 1517.81 2058.13Z" fill="#DE6A5A"/>
<path d="M1769.32 2058.13V3987H1517.81V2058.13C1517.86 1978.46 1503.88 1899.4 1476.51 1824.58C1457.4 1772.31 1431.49 1722.79 1399.45 1677.29C1386.98 1659.76 1373.59 1642.91 1359.34 1626.79C1338.89 1603.73 1320.98 1578.54 1305.91 1551.65C1273.31 1493.06 1253.43 1428.24 1247.58 1361.44C1246.2 1346.24 1245.47 1330.91 1245.47 1315.54V852.299H1469.49V1315.54C1469.46 1330.87 1470.24 1346.19 1471.82 1361.44C1478.62 1428.85 1500.62 1493.84 1536.17 1551.52C1552.95 1578.63 1572.65 1603.83 1594.92 1626.66C1610.58 1642.62 1625.31 1659.48 1639.02 1677.15C1674 1722.08 1702.58 1771.65 1723.93 1824.45C1753.86 1898.72 1769.27 1978.05 1769.32 2058.13Z" fill="#CD5747"/>
<path d="M1495.6 674.797H1024.53C1012.16 674.797 1002.13 684.826 1002.13 697.197V945.57C1002.13 957.941 1012.16 967.969 1024.53 967.969H1495.6C1507.97 967.969 1518 957.941 1518 945.57V697.197C1518 684.826 1507.97 674.797 1495.6 674.797Z" fill="#42474C"/>
<path d="M2404.61 2892.07V2921.67C2404.59 2949 2398.95 2976.02 2388.03 3001.07C2377.12 3026.12 2361.17 3048.65 2341.18 3067.27C2359.22 3071.41 2375.32 3081.55 2386.84 3096.04C2398.37 3110.52 2404.63 3128.49 2404.61 3147V3905.3C2404.61 3926.96 2396 3947.75 2380.68 3963.07C2365.36 3978.39 2344.58 3987 2322.91 3987H1283.98C1262.31 3987 1241.53 3978.39 1226.21 3963.07C1210.89 3947.75 1202.28 3926.96 1202.28 3905.3V3147C1202.29 3128.51 1208.57 3110.57 1220.09 3096.1C1231.61 3081.64 1247.69 3071.51 1265.71 3067.36C1245.72 3048.74 1229.77 3026.21 1218.86 3001.16C1207.95 2976.11 1202.3 2949.09 1202.28 2921.77V2892.16C1202.26 2891.81 1202.26 2891.45 1202.28 2891.1C1202.24 2890.74 1202.24 2890.37 1202.28 2890V2889.68C1202.28 2889.08 1202.28 2888.49 1202.28 2887.89C1202.28 2886.74 1202.28 2885.59 1202.56 2884.4C1202.83 2883.21 1202.56 2882.7 1202.79 2881.83C1202.79 2880.09 1203.29 2878.25 1203.61 2876.51C1204.07 2873.94 1204.62 2871.37 1205.31 2868.84C1206.42 2864.57 1207.83 2860.38 1209.54 2856.31C1209.86 2855.39 1210.27 2854.47 1210.68 2853.51C1214.93 2844 1220.33 2835.04 1226.75 2826.84C1227.48 2825.88 1228.21 2824.87 1228.99 2823.95C1231.66 2820.64 1234.46 2817.39 1237.48 2814.17C1238.26 2813.3 1239.05 2812.43 1239.92 2811.6L1241.75 2809.72L1245.24 2806.28L1249.23 2802.56C1250.24 2801.64 1251.21 2800.72 1252.22 2799.9C1253.23 2799.07 1254.28 2798.01 1255.38 2797.1L1259.38 2793.79C1260.57 2792.78 1261.85 2791.77 1263.14 2790.76C1270.25 2785.16 1277.96 2779.65 1286.09 2774.33L1290.68 2771.53L1293.52 2769.74L1298.11 2766.99C1301.74 2764.83 1305.46 2762.67 1309.22 2760.61C1311.05 2759.55 1312.89 2758.54 1314.77 2757.58C1316.65 2756.61 1318.49 2755.56 1320.42 2754.59C1326.06 2751.65 1331.94 2748.72 1338 2745.87L1344.1 2743.02L1350.34 2740.27L1354.93 2738.3C1359.8 2736.19 1364.75 2734.12 1369.8 2732.1L1376.46 2729.48C1381.05 2727.74 1385.64 2726.04 1390.23 2724.34L1397.2 2721.82L1404.27 2719.34L1411.48 2716.91C1418.68 2714.52 1426.02 2712.32 1433.6 2709.93L1440.71 2707.82C1443.37 2706.99 1446.08 2706.21 1448.84 2705.48L1454.57 2703.87C1460.4 2702.26 1466.32 2700.66 1472.38 2699.28L1486.88 2695.65L1496.7 2693.36C1586.57 2672.7 1691.57 2660.86 1803.74 2660.86C1915.91 2660.86 2020.88 2672.7 2110.74 2693.36L2120.56 2695.65L2135.07 2699.28C2141.12 2700.8 2147.04 2702.4 2152.87 2703.87L2158.61 2705.48C2161.36 2706.21 2164.07 2706.99 2166.73 2707.82L2173.85 2709.93L2182.15 2712.45L2187.48 2714.15C2189.77 2714.84 2192.07 2715.62 2194.27 2716.36C2194.87 2716.36 2195.42 2716.77 2196.01 2716.91L2203.17 2719.34L2210.24 2721.82L2217.22 2724.34C2221.81 2726.04 2226.4 2727.74 2230.99 2729.48L2237.64 2732.1L2242.92 2734.26C2244.48 2734.85 2245.95 2735.5 2247.51 2736.14L2252.56 2738.3L2257.15 2740.27L2263.39 2743.02L2269.49 2745.87C2275.55 2748.72 2281.42 2751.65 2287.07 2754.59C2289 2755.56 2290.88 2756.57 2292.72 2757.58C2294.55 2758.59 2296.43 2759.55 2298.27 2760.61C2302.03 2762.67 2305.75 2764.83 2309.38 2766.99L2313.97 2769.74L2316.77 2771.53L2321.36 2774.33C2324.84 2776.62 2328.29 2778.92 2331.59 2781.26L2335.44 2784.01L2337.88 2785.76L2339.81 2787.23C2341.37 2788.38 2342.88 2789.57 2344.39 2790.76C2345.91 2791.96 2346.96 2792.78 2348.16 2793.79L2352.15 2797.1C2353.25 2798.01 2354.31 2798.93 2355.32 2799.9C2356.33 2800.86 2357.34 2801.64 2358.3 2802.56L2362.29 2806.28L2365.78 2809.72L2367.62 2811.6C2368.49 2812.43 2369.27 2813.3 2370.05 2814.17C2370.83 2815.04 2372.21 2816.51 2373.22 2817.66C2374.23 2818.81 2374.87 2819.5 2375.65 2820.46C2376.43 2821.42 2377.62 2822.8 2378.54 2823.95C2379.46 2825.1 2380.05 2825.88 2380.79 2826.84C2383.18 2829.92 2385.38 2833.08 2387.44 2836.02C2388.09 2836.94 2388.64 2837.9 2389.23 2838.82C2389.83 2839.74 2390.11 2840.24 2390.47 2840.93C2390.84 2841.62 2391.99 2843.46 2392.63 2844.7C2393.27 2845.94 2393.55 2846.35 2393.96 2847.18C2394.97 2849.19 2395.93 2851.26 2396.85 2853.28C2396.85 2853.56 2397.08 2853.83 2397.17 2854.06C2397.27 2854.29 2397.72 2855.3 2397.95 2855.94C2398.32 2856.81 2398.64 2857.64 2398.97 2858.51C2399.29 2859.39 2399.7 2860.39 2399.97 2861.31C2400.2 2861.83 2400.38 2862.37 2400.52 2862.92C2401.17 2864.8 2401.72 2866.64 2402.22 2868.47C2402.73 2870.31 2403.46 2873.57 2403.88 2876.14C2403.88 2876.83 2404.15 2877.56 2404.24 2878.3C2404.33 2879.03 2404.56 2880.41 2404.7 2881.46C2404.84 2882.52 2404.7 2883.21 2404.93 2884.03C2405.16 2884.86 2405.16 2886.28 2405.21 2887.38V2887.71C2405.21 2888.3 2405.21 2888.9 2405.21 2889.5V2889.96C2405.25 2890.32 2405.25 2890.69 2405.21 2891.06C2405.03 2891.41 2404.83 2891.75 2404.61 2892.07Z" fill="#BF8563"/>
<path d="M1803.42 2660.45H601.094V3987H1803.42V2660.45Z" fill="#BF8563"/>
<path d="M1138.94 3067.32C1156.97 3071.46 1173.05 3081.6 1184.56 3096.08C1196.08 3110.55 1202.34 3128.51 1202.32 3147V3905.29C1202.32 3926.96 1193.72 3947.75 1178.4 3963.07C1163.08 3978.39 1142.3 3987 1120.63 3987H81.6484C59.9934 3986.97 39.2329 3978.36 23.9249 3963.04C8.61679 3947.72 0.0121452 3926.95 0 3905.29V3147C0.00142624 3128.51 6.27598 3110.57 17.798 3096.11C29.32 3081.66 45.4065 3071.54 63.4269 3067.41C43.4334 3048.8 27.4842 3026.27 16.5722 3001.23C5.66005 2976.19 0.0194035 2949.17 0 2921.86V2889.73C0.0493833 2889.13 0.0493833 2888.53 0 2887.93L0.275642 2884.45L0.551285 2881.88C0.551285 2880.09 1.00988 2878.34 1.33115 2876.55C1.79011 2873.98 2.34139 2871.41 3.02982 2868.84C4.16294 2864.57 5.58765 2860.38 7.29668 2856.31C7.63165 2855.37 8.01462 2854.45 8.44407 2853.55C12.646 2844.04 18.0107 2835.08 24.4156 2826.89C25.2418 2825.83 25.9313 2824.87 26.7575 2823.95C29.4194 2820.69 32.1736 2817.38 35.2486 2814.22C35.9859 2813.28 36.7985 2812.4 37.6801 2811.6C38.2452 2810.94 38.8584 2810.33 39.5154 2809.76L43.0047 2806.28C44.2286 2805.05 45.5578 2803.81 46.9959 2802.56L49.9338 2799.9C51.0047 2798.92 52.0601 2798 53.1004 2797.14L57.0938 2793.79L60.8564 2790.76C67.9702 2785.16 75.6807 2779.65 83.8042 2774.33L88.1652 2771.57L91.0112 2769.78L95.6008 2766.94C99.1807 2764.83 102.898 2762.67 106.707 2760.65C108.589 2759.59 110.334 2758.49 112.216 2757.62C114.097 2756.75 115.932 2755.6 117.905 2754.59C123.596 2751.65 129.426 2748.76 135.484 2745.92C137.457 2744.91 139.477 2744.03 141.588 2743.07C143.699 2742.11 145.672 2741.19 147.829 2740.32C149.252 2739.58 150.767 2738.98 152.419 2738.25L167.243 2732.15L173.899 2729.48C178.488 2727.78 183.078 2725.99 187.668 2724.39L194.597 2721.82C196.983 2721.04 199.188 2720.21 201.712 2719.34L208.87 2716.95C216.075 2714.57 223.466 2712.36 230.993 2709.93L238.106 2707.82L246.276 2705.48L251.966 2703.87C257.795 2702.31 263.762 2700.7 269.82 2699.28C274.41 2698.04 279.412 2696.8 284.369 2695.65C287.581 2694.83 290.839 2694.14 294.144 2693.31C496.515 2649.98 705.765 2649.98 908.136 2693.31C911.395 2694.14 914.699 2694.83 918.003 2695.65C922.868 2696.8 927.687 2698.04 932.552 2699.28C938.518 2700.79 944.439 2702.4 950.314 2703.87L956.095 2705.48C958.757 2706.3 961.512 2706.99 964.174 2707.82L971.287 2709.93L979.594 2712.5C981.384 2713.05 983.174 2713.56 984.964 2714.2C986.754 2714.84 989.554 2715.62 991.712 2716.4L993.363 2716.95C995.887 2717.73 998.273 2718.56 1000.57 2719.34C1002.86 2720.12 1005.16 2721.04 1007.68 2721.82L1014.61 2724.39C1019.2 2725.99 1023.79 2727.78 1028.38 2729.48L1035.04 2732.15L1040.27 2734.26C1041.88 2734.9 1043.39 2735.5 1044.86 2736.14C1046.33 2736.78 1048.21 2737.65 1049.91 2738.25C1051.6 2738.85 1052.93 2739.58 1054.5 2740.32C1056.06 2741.05 1058.67 2742.06 1060.6 2743.07C1062.53 2744.08 1064.78 2744.91 1066.75 2745.92C1072.76 2748.76 1078.73 2751.65 1084.42 2754.59L1090.02 2757.62C1091.86 2758.49 1093.74 2759.59 1095.53 2760.65C1099.34 2762.67 1103.05 2764.83 1106.68 2766.94C1108.19 2767.95 1109.71 2768.91 1111.27 2769.78C1112.83 2770.66 1113.15 2770.93 1114.11 2771.57C1115.08 2772.22 1117.05 2773.41 1118.48 2774.33C1122.01 2776.62 1125.4 2778.92 1128.66 2781.26C1129.99 2782.13 1131.32 2783 1132.61 2784.01C1133.89 2785.02 1134.17 2785.16 1135 2785.76C1135.82 2786.35 1136.33 2786.77 1136.92 2787.18L1141.51 2790.76L1145.23 2793.79C1146.56 2794.94 1147.99 2795.99 1149.22 2797.14C1150.46 2798.29 1151.38 2798.93 1152.44 2799.9L1155.37 2802.56C1156.8 2803.8 1158.13 2805.04 1159.46 2806.28L1162.9 2809.76C1163.54 2810.36 1164.14 2811 1164.69 2811.6C1165.56 2812.43 1166.39 2813.3 1167.17 2814.22L1170.38 2817.66C1171.16 2818.53 1171.99 2819.54 1172.77 2820.51C1173.55 2821.47 1174.74 2822.8 1175.61 2823.95C1176.49 2825.1 1177.13 2825.83 1177.91 2826.89C1180.27 2829.82 1182.46 2832.88 1184.47 2836.07C1185.21 2837.08 1185.76 2838.04 1186.35 2838.91C1186.95 2839.78 1187.23 2840.34 1187.59 2841.07C1188.38 2842.27 1189.1 2843.51 1189.75 2844.79C1190.16 2845.57 1190.62 2846.49 1191.08 2847.27C1192.05 2849.33 1193.01 2851.35 1193.93 2853.42L1194.25 2854.11C1194.52 2854.75 1194.8 2855.34 1195.08 2856.08C1195.4 2856.95 1195.67 2857.78 1196.04 2858.65C1196.41 2859.52 1196.73 2860.53 1197 2861.5C1197.26 2862.01 1197.48 2862.55 1197.65 2863.1C1198.24 2864.94 1198.79 2866.82 1199.25 2868.61C1199.93 2871.15 1200.49 2873.72 1200.9 2876.32C1200.9 2877.01 1201.18 2877.65 1201.27 2878.43C1201.36 2879.21 1201.64 2880.59 1201.73 2881.65C1201.87 2882.5 1201.96 2883.36 1202 2884.22C1202 2885.27 1202.01 2886.47 1202.23 2887.52V2887.84C1202.19 2888.44 1202.19 2889.04 1202.23 2889.63V2889.95C1202.28 2890.31 1202.28 2890.66 1202.23 2891.01C1202.28 2891.36 1202.28 2891.72 1202.23 2892.07V2921.76C1202.22 2949.07 1196.6 2976.08 1185.71 3001.12C1174.82 3026.16 1158.91 3048.69 1138.94 3067.32Z" fill="#E9B99E"/>
<path d="M3758.8 3411.44C3751.6 3411.41 3744.45 3410.28 3737.59 3408.09L3765.5 3411.44H3766.78C3775.71 3410.97 3784.49 3409.07 3792.81 3405.8C3834.53 3390.05 3856.56 3346.63 3842.28 3308.62C3831.41 3279.48 3802.03 3262.03 3769.91 3262.72C3769.49 3205.21 3718.09 3158.62 3654.52 3158.62C3643.83 3158.65 3633.18 3159.99 3622.81 3162.61C3623 3161.29 3623.08 3159.95 3623.04 3158.62C3623.04 3100.69 3571.41 3053.69 3507.61 3053.69C3487.83 3053.72 3468.35 3058.44 3450.75 3067.46C3437.35 3023.39 3392.87 2990.89 3339.77 2990.89C3319.36 2990.8 3299.24 2995.77 3281.21 3005.35C3278.92 2989.37 3272.81 2974.18 3263.4 2961.06C3229.39 2914.28 3159.95 2906.71 3108.32 2944.3C3099.78 2950.58 3092.07 2957.9 3085.37 2966.11C3084.69 2964.94 3083.92 2963.82 3083.08 2962.76C3060.4 2931.5 3022.04 2917.86 2983.44 2923.28C2980.62 2917.11 2977.25 2911.2 2973.34 2905.65C2939.15 2858.88 2869.89 2851.31 2818.31 2888.9C2797.67 2903.63 2782.25 2924.52 2774.25 2948.57C2768.44 2941.88 2761.88 2935.89 2754.69 2930.72C2703.11 2893.17 2633.85 2900.7 2599.66 2947.52C2595.74 2953.05 2592.35 2958.96 2589.56 2965.14C2550.96 2959.68 2512.6 2973.31 2489.92 3004.57C2489.07 3005.72 2488.29 3006.91 2487.58 3008.15C2480.77 2999.87 2472.95 2992.47 2464.31 2986.12C2412.91 2948.57 2343.47 2956.1 2309.46 3002.92C2299.9 3016.03 2293.76 3031.32 2291.61 3047.4C2273.66 3037.64 2253.53 3032.58 2233.09 3032.71C2169.3 3032.71 2117.67 3079.71 2117.67 3137.64C2117.89 3154.25 2122.2 3170.55 2130.2 3185.11C2138.2 3199.67 2149.66 3212.04 2163.56 3221.14C2137.99 3218.14 2112.07 3220.97 2087.74 3229.42C2063.42 3237.87 2041.33 3251.72 2023.12 3269.93C1970.94 3322.07 2007.88 3411.26 2081.64 3411.26L3758.8 3411.44Z" fill="#DEAC90"/>
<path d="M3709.43 3124.19C3696.54 3146.51 3704.18 3175.06 3726.5 3187.94C3748.81 3200.83 3777.35 3193.17 3790.24 3170.85L4151.8 2544.52C4164.69 2522.19 4157.05 2493.64 4134.74 2480.76C4112.42 2467.87 4083.89 2475.53 4071 2497.86L3709.43 3124.19Z" fill="#6B7177"/>
<path d="M3107.91 3042.58C3165.35 3042.58 3211.91 2996.01 3211.91 2938.57C3211.91 2881.12 3165.35 2834.55 3107.91 2834.55C3050.48 2834.55 3003.91 2881.12 3003.91 2938.57C3003.91 2996.01 3050.48 3042.58 3107.91 3042.58Z" fill="#CD5747"/>
<path d="M2428.11 3090.59C2485.55 3090.59 2532.11 3044.02 2532.11 2986.58C2532.11 2929.13 2485.55 2882.56 2428.11 2882.56C2370.67 2882.56 2324.11 2929.13 2324.11 2986.58C2324.11 3044.02 2370.67 3090.59 2428.11 3090.59Z" fill="#CD5747"/>
<path d="M2060.02 3242.57C2117.46 3242.57 2164.02 3196 2164.02 3138.56C2164.02 3081.11 2117.46 3034.54 2060.02 3034.54C2002.59 3034.54 1956.02 3081.11 1956.02 3138.56C1956.02 3196 2002.59 3242.57 2060.02 3242.57Z" fill="#CD5747"/>
<path d="M3587.84 3322.53C3702.69 3322.53 3795.8 3229.42 3795.8 3114.55C3795.8 2999.69 3702.69 2906.57 3587.84 2906.57C3472.99 2906.57 3379.89 2999.69 3379.89 3114.55C3379.89 3229.42 3472.99 3322.53 3587.84 3322.53Z" fill="#BF8563"/>
<path d="M3991.03 3115.42C3964.18 3424.2 3725.3 3687.82 3386.59 3819.23C3384.66 3819.98 3383 3821.29 3381.83 3822.99C3380.66 3824.7 3380.03 3826.71 3380.02 3828.78V3925.17C3380.05 3933.28 3378.47 3941.32 3375.39 3948.82C3372.3 3956.32 3367.76 3963.14 3362.04 3968.88C3356.31 3974.62 3349.51 3979.18 3342.02 3982.29C3334.53 3985.4 3326.5 3987 3318.39 3987H2475.88C2459.53 3987 2443.86 3980.51 2432.3 3968.95C2420.74 3957.38 2414.24 3941.7 2414.24 3925.35V3828.73C2414.24 3826.67 2413.61 3824.65 2412.43 3822.95C2411.26 3821.24 2409.61 3819.93 2407.68 3819.18C2068.97 3687.81 1830.18 3424.16 1803.33 3115.42H3991.03Z" fill="#5AB2AC"/>
</g>
<defs>
<clipPath id="clip0_251_147">
<rect width="4158" height="3987" fill="white"/>
</clipPath>
</defs>
</svg>
