<svg width="3989" height="3291" viewBox="0 0 3989 3291" fill="none" xmlns="http://www.w3.org/2000/svg">
<g clip-path="url(#clip0_251_123)">
<path d="M3897.66 2209.66C3650.77 2742.8 3111.04 3112.67 2484.88 3112.67C1625.44 3112.67 928.719 2415.91 928.719 1556.36C928.719 696.807 1625.39 0.000118929 2484.88 0.000118929C2579.42 -0.0367304 2673.77 8.48963 2766.78 25.4752C2772.72 26.4857 2778.23 29.2617 2782.58 33.442C2786.1 36.802 2788.79 40.9396 2790.43 45.5242C2792.06 50.1088 2792.61 55.0132 2792.01 59.8452C2791.42 64.6772 2789.7 69.3029 2787 73.3525C2784.3 77.402 2780.68 80.763 2776.45 83.167C2513.27 233.732 2318.46 480.196 2232.73 771.052C2147 1061.91 2176.98 1374.65 2316.41 1643.91C2455.83 1913.18 2693.92 2118.13 2980.91 2215.94C3267.89 2313.76 3581.57 2296.85 3856.38 2168.77C3862.14 2166.05 3868.6 2165.18 3874.88 2166.26C3881.15 2167.35 3886.94 2170.34 3891.46 2174.83C3895.97 2179.32 3899 2185.1 3900.11 2191.37C3901.23 2197.64 3900.39 2204.1 3897.7 2209.87L3897.66 2209.66Z" fill="#D2D5D9"/>
<g filter="url(#filter0_d_251_123)">
<path d="M2156.91 2851.05C2156.91 2898.21 2147.62 2944.9 2129.57 2988.46C2111.52 3032.03 2085.06 3071.61 2051.71 3104.94C2018.35 3138.28 1978.76 3164.71 1935.19 3182.73C1891.61 3200.75 1844.92 3210.01 1797.77 3209.98H427.18C335.288 3209.99 246.887 3174.77 180.172 3111.57C113.456 3048.37 73.5005 2962 68.5269 2870.23C63.5532 2778.46 93.9411 2688.27 153.435 2618.23C212.93 2548.19 297.005 2503.62 388.359 2493.69C405.33 2424.79 444.903 2363.56 500.756 2319.79C556.609 2276.02 625.518 2252.24 696.474 2252.25C751.43 2252.18 805.442 2266.53 853.114 2293.87C896.75 2201.71 970.451 2127.15 1062.09 2082.45C1153.73 2037.74 1257.86 2025.57 1357.34 2047.92C1456.82 2070.28 1545.73 2125.82 1609.45 2205.43C1673.16 2285.04 1707.89 2383.97 1707.92 2485.94C1707.92 2491.77 1707.92 2497.63 1707.61 2503.45C1737.02 2495.78 1767.29 2491.91 1797.68 2491.94C1844.85 2491.9 1891.57 2501.15 1935.17 2519.18C1978.76 2537.21 2018.37 2563.66 2051.74 2597.01C2085.1 2630.36 2111.57 2669.97 2129.61 2713.56C2147.66 2757.15 2156.94 2803.87 2156.91 2851.05Z" fill="white"/>
</g>
<path d="M3023.99 322.381L2951.21 469.849L2788.48 493.486L2906.26 608.3L2878.42 770.388L3023.99 693.874L3169.56 770.388L3141.77 608.3L3259.5 493.486L3096.77 469.849L3023.99 322.381Z" fill="#E9AF58"/>
<path d="M414.207 1119.99L335.909 1278.67L160.844 1304.14L287.504 1427.62L257.611 1602.06L414.207 1519.72L570.847 1602.06L540.911 1427.62L667.615 1304.14L492.505 1278.67L414.207 1119.99Z" fill="#E9AF58"/>
<path d="M3745.36 2827.46L3670.03 2980.04L3501.66 3004.51L3623.51 3123.31L3594.75 3291L3745.36 3211.82L3895.96 3291L3867.2 3123.31L3989 3004.51L3820.63 2980.04L3745.36 2827.46Z" fill="#E9AF58"/>
<path d="M1415.71 1621.18C1527.62 1621.18 1618.35 1530.45 1618.35 1418.52C1618.35 1306.59 1527.62 1215.86 1415.71 1215.86C1303.79 1215.86 1213.07 1306.59 1213.07 1418.52C1213.07 1530.45 1303.79 1621.18 1415.71 1621.18Z" fill="#B6BABF"/>
<path d="M2477.44 2569.59C2544.59 2569.59 2599.03 2515.15 2599.03 2448C2599.03 2380.84 2544.59 2326.4 2477.44 2326.4C2410.29 2326.4 2355.86 2380.84 2355.86 2448C2355.86 2515.15 2410.29 2569.59 2477.44 2569.59Z" fill="#B6BABF"/>
<path d="M2157.29 356.654C2195.33 356.654 2226.17 325.807 2226.17 287.757C2226.17 249.706 2195.33 218.859 2157.29 218.859C2119.24 218.859 2088.4 249.706 2088.4 287.757C2088.4 325.807 2119.24 356.654 2157.29 356.654Z" fill="#B6BABF"/>
</g>
<defs>
<filter id="filter0_d_251_123" x="12.1" y="1980.1" width="2200.71" height="1284.78" filterUnits="userSpaceOnUse" color-interpolation-filters="sRGB">
<feFlood flood-opacity="0" result="BackgroundImageFix"/>
<feColorMatrix in="SourceAlpha" type="matrix" values="0 0 0 0 0 0 0 0 0 0 0 0 0 0 0 0 0 0 127 0" result="hardAlpha"/>
<feOffset dy="-1"/>
<feGaussianBlur stdDeviation="27.95"/>
<feComposite in2="hardAlpha" operator="out"/>
<feColorMatrix type="matrix" values="0 0 0 0 0 0 0 0 0 0 0 0 0 0 0 0 0 0 0.25 0"/>
<feBlend mode="normal" in2="BackgroundImageFix" result="effect1_dropShadow_251_123"/>
<feBlend mode="normal" in="SourceGraphic" in2="effect1_dropShadow_251_123" result="shape"/>
</filter>
<clipPath id="clip0_251_123">
<rect width="3989" height="3291" fill="white"/>
</clipPath>
</defs>
</svg>
