<svg width="4427" height="4427" viewBox="0 0 4427 4427" fill="none" xmlns="http://www.w3.org/2000/svg">
<g clip-path="url(#clip0_251_170)">
<path d="M4427 2213.5C4427.02 2292.46 4422.85 2371.37 4414.51 2449.89C4413.88 2455.93 4413.22 2461.96 4412.52 2467.99H14.4786C13.7849 2461.96 13.1194 2455.93 12.486 2449.89C4.15174 2371.37 -0.0153757 2292.46 4.26281e-05 2213.5C4.26281e-05 991.019 991.019 0 2213.5 0C3435.98 0 4427 991.019 4427 2213.5Z" fill="#EFF0F1"/>
<path d="M4412.52 2467.99C4383.89 2718.92 4312.22 2963.03 4200.67 3189.61H226.324C114.772 2963.03 43.1082 2718.92 14.4766 2467.99H4412.52Z" fill="#E9AF58"/>
<path d="M2214.16 3585.49C2906.92 3585.49 3468.51 3023.89 3468.51 2331.13C3468.51 1638.37 2906.92 1076.78 2214.16 1076.78C1521.4 1076.78 959.805 1638.37 959.805 2331.13C959.805 3023.89 1521.4 3585.49 2214.16 3585.49Z" fill="#E0A143"/>
<path d="M1872.49 1203.59C1872.49 1229.73 1867.33 1255.61 1857.33 1279.75C1847.32 1303.89 1832.66 1325.83 1814.17 1344.31C1795.68 1362.78 1773.74 1377.43 1749.59 1387.42C1725.44 1397.41 1699.55 1402.54 1673.42 1402.52H914.13C887.995 1402.54 862.114 1397.41 837.962 1387.42C813.811 1377.43 791.864 1362.78 773.377 1344.31C754.89 1325.83 740.225 1303.89 730.219 1279.75C720.213 1255.61 715.062 1229.73 715.063 1203.59C715.068 1154.54 733.186 1107.22 765.936 1070.7C798.687 1034.18 843.766 1011.05 892.528 1005.72C901.928 967.547 923.854 933.624 954.803 909.376C985.751 885.128 1023.93 871.956 1063.25 871.963C1093.7 871.875 1123.64 879.784 1150.07 894.9C1170.24 852.32 1202.07 816.341 1241.88 791.144C1281.69 765.948 1327.84 752.569 1374.95 752.566C1407.61 752.563 1439.96 758.996 1470.14 771.494C1500.31 783.993 1527.73 802.313 1550.83 825.41C1573.93 848.506 1592.25 875.927 1604.75 906.104C1617.25 936.282 1623.68 968.625 1623.67 1001.29C1623.67 1004.52 1623.67 1007.78 1623.49 1010.97C1639.79 1006.71 1656.57 1004.57 1673.42 1004.59C1726.2 1004.59 1776.83 1025.55 1814.16 1062.87C1851.49 1100.19 1872.47 1150.81 1872.49 1203.59Z" fill="white"/>
<path d="M4034.32 2081.01C4034.32 2100.03 4030.56 2118.86 4023.25 2136.42C4015.94 2153.98 4005.22 2169.92 3991.72 2183.32C3978.32 2196.82 3962.37 2207.54 3944.81 2214.86C3927.25 2222.17 3908.41 2225.94 3889.38 2225.94H3258.93C3220.52 2225.83 3183.72 2210.52 3156.57 2183.37C3129.41 2156.21 3114.11 2119.41 3113.99 2081.01C3113.99 2061.98 3117.75 2043.15 3125.06 2025.59C3132.37 2008.03 3143.09 1992.09 3156.59 1978.69C3168.63 1966.58 3182.75 1956.71 3198.26 1949.55C3190.41 1926.55 3186.41 1902.4 3186.45 1878.09C3186.46 1819.48 3209.75 1763.26 3251.2 1721.81C3292.65 1680.36 3348.86 1657.07 3407.48 1657.06C3448.18 1657.03 3488.11 1668.25 3522.84 1689.48C3557.57 1710.71 3585.75 1741.12 3604.29 1777.36C3634.13 1757.89 3669.02 1747.57 3704.66 1747.66C3753.67 1747.66 3800.67 1767.13 3835.32 1801.79C3869.97 1836.44 3889.45 1883.44 3889.45 1932.45C3889.45 1933.67 3889.45 1934.92 3889.45 1936.07C3927.84 1936.2 3964.63 1951.52 3991.77 1978.67C4018.91 2005.82 4034.21 2042.61 4034.32 2081.01Z" fill="white"/>
<path d="M4200.79 3189.61C4034.03 3527.99 3783.91 3818.36 3473.96 4033.39C3113.24 4283.93 2685.85 4420.91 2246.69 4426.75C2235.69 4426.9 2224.67 4426.98 2213.61 4427C2189.09 4427 2164.65 4426.6 2140.3 4425.8C1714.98 4412.44 1302.64 4276.14 953.152 4033.39C643.206 3818.36 393.082 3527.99 226.328 3189.61H4200.79Z" fill="#E9AF58"/>
<path d="M4412.52 2467.99C4383.89 2718.92 4312.22 2963.03 4200.67 3189.61H226.324C114.772 2963.03 43.1082 2718.92 14.4766 2467.99H4412.52Z" fill="#7FBEC6"/>
<path d="M3888.14 2942.09C3986.9 3267.02 3803.56 3610.48 3478.69 3709.25C3153.83 3808.01 2810.32 3624.64 2711.55 3299.8L3888.14 2942.09Z" fill="#208B85"/>
<path d="M3836.43 2957.81C3926.51 3254.15 3759.27 3567.46 3462.9 3657.51C3166.54 3747.57 2853.28 3580.37 2763.2 3284.01L3836.43 2957.81Z" fill="#CD5747"/>
<path d="M3117.05 3477.42C3125.13 3474.97 3128.17 3461.43 3123.84 3447.18C3119.51 3432.93 3109.45 3423.37 3101.37 3425.83C3093.29 3428.28 3090.25 3441.83 3094.58 3456.07C3098.91 3470.32 3108.97 3479.88 3117.05 3477.42Z" fill="#42474C"/>
<path d="M3223.08 3445.17C3231.16 3442.72 3234.2 3429.17 3229.86 3414.93C3225.53 3400.68 3215.47 3391.12 3207.39 3393.57C3199.31 3396.03 3196.27 3409.57 3200.6 3423.82C3204.93 3438.07 3215 3447.63 3223.08 3445.17Z" fill="#42474C"/>
<path d="M3329.12 3412.96C3337.2 3410.5 3340.24 3396.96 3335.91 3382.71C3331.58 3368.46 3321.52 3358.91 3313.44 3361.36C3305.36 3363.82 3302.32 3377.36 3306.65 3391.61C3310.98 3405.86 3321.04 3415.42 3329.12 3412.96Z" fill="#42474C"/>
<path d="M3435.15 3380.71C3443.23 3378.25 3446.27 3364.71 3441.93 3350.46C3437.6 3336.21 3427.54 3326.65 3419.46 3329.11C3411.38 3331.57 3408.34 3345.11 3412.67 3359.36C3417 3373.61 3427.07 3383.16 3435.15 3380.71Z" fill="#42474C"/>
<path d="M3541.18 3348.5C3549.26 3346.04 3552.3 3332.5 3547.97 3318.25C3543.63 3304.01 3533.57 3294.45 3525.49 3296.9C3517.41 3299.36 3514.37 3312.9 3518.7 3327.15C3523.03 3341.4 3533.1 3350.96 3541.18 3348.5Z" fill="#42474C"/>
<path d="M3647.18 3316.25C3655.26 3313.79 3658.3 3300.25 3653.97 3286C3649.63 3271.75 3639.57 3262.2 3631.49 3264.65C3623.41 3267.11 3620.37 3280.65 3624.7 3294.9C3629.03 3309.15 3639.1 3318.71 3647.18 3316.25Z" fill="#42474C"/>
<path d="M3580.3 3183.24C3588.38 3180.79 3591.42 3167.24 3587.09 3153C3582.76 3138.75 3572.7 3129.19 3564.62 3131.65C3556.54 3134.1 3553.5 3147.64 3557.83 3161.89C3562.16 3176.14 3572.22 3185.7 3580.3 3183.24Z" fill="#42474C"/>
<path d="M3339.32 3255.21C3347.43 3252.76 3350.5 3239.18 3346.18 3224.89C3341.86 3210.59 3331.79 3200.99 3323.68 3203.43C3315.57 3205.88 3312.5 3219.46 3316.82 3233.76C3321.14 3248.05 3331.21 3257.66 3339.32 3255.21Z" fill="#42474C"/>
<path d="M3700.72 3146.63C3708.8 3144.17 3711.84 3130.63 3707.51 3116.38C3703.17 3102.13 3693.11 3092.57 3685.03 3095.03C3676.95 3097.49 3673.91 3111.03 3678.24 3125.28C3682.57 3139.53 3692.64 3149.08 3700.72 3146.63Z" fill="#42474C"/>
<path d="M3098.61 3329.69C3106.69 3327.24 3109.72 3313.69 3105.39 3299.45C3101.06 3285.2 3091 3275.64 3082.92 3278.1C3074.84 3280.55 3071.8 3294.09 3076.13 3308.34C3080.46 3322.59 3090.53 3332.15 3098.61 3329.69Z" fill="#42474C"/>
<path d="M2978.18 3366.29C2986.26 3363.83 2989.3 3350.29 2984.97 3336.04C2980.64 3321.79 2970.58 3312.23 2962.5 3314.69C2954.42 3317.14 2951.38 3330.69 2955.71 3344.93C2960.04 3359.18 2970.1 3368.74 2978.18 3366.29Z" fill="#42474C"/>
<path d="M3459.86 3219.86C3467.94 3217.4 3470.97 3203.86 3466.64 3189.61C3462.31 3175.36 3452.25 3165.8 3444.17 3168.26C3436.09 3170.72 3433.05 3184.26 3437.38 3198.51C3441.71 3212.76 3451.78 3222.31 3459.86 3219.86Z" fill="#42474C"/>
<path d="M3219.02 3293.08C3227.1 3290.63 3230.14 3277.09 3225.81 3262.84C3221.48 3248.59 3211.42 3239.03 3203.34 3241.49C3195.26 3243.94 3192.21 3257.49 3196.55 3271.73C3200.88 3285.98 3210.94 3295.54 3219.02 3293.08Z" fill="#42474C"/>
<path d="M3631.23 3474.46C3639.31 3472.01 3642.35 3458.46 3638.02 3444.22C3633.69 3429.97 3623.62 3420.41 3615.54 3422.86C3607.46 3425.32 3604.43 3438.86 3608.76 3453.11C3613.09 3467.36 3623.15 3476.92 3631.23 3474.46Z" fill="#42474C"/>
<path d="M3424.79 3537.2C3432.87 3534.75 3435.91 3521.21 3431.57 3506.96C3427.24 3492.71 3417.18 3483.15 3409.1 3485.61C3401.02 3488.06 3397.98 3501.61 3402.31 3515.85C3406.64 3530.1 3416.71 3539.66 3424.79 3537.2Z" fill="#42474C"/>
<path d="M3218.36 3599.97C3226.44 3597.51 3229.48 3583.97 3225.15 3569.72C3220.81 3555.47 3210.75 3545.91 3202.67 3548.37C3194.59 3550.83 3191.55 3564.37 3195.88 3578.62C3200.21 3592.87 3210.28 3602.42 3218.36 3599.97Z" fill="#42474C"/>
<path d="M3528.02 3505.84C3536.1 3503.39 3539.14 3489.85 3534.81 3475.6C3530.48 3461.35 3520.41 3451.79 3512.33 3454.25C3504.25 3456.7 3501.22 3470.25 3505.55 3484.49C3509.88 3498.74 3519.94 3508.3 3528.02 3505.84Z" fill="#42474C"/>
<path d="M3321.58 3568.59C3329.66 3566.13 3332.7 3552.59 3328.37 3538.34C3324.04 3524.09 3313.98 3514.53 3305.9 3516.99C3297.82 3519.45 3294.78 3532.99 3299.11 3547.24C3303.44 3561.48 3313.5 3571.04 3321.58 3568.59Z" fill="#42474C"/>
<path d="M1158 3008C1162.94 3017.39 1167.59 3027.16 1171.93 3037.31C1173 3039.79 1174.04 3042.32 1175.05 3044.86C1176.06 3047.39 1177.12 3049.93 1178.09 3052.6C1179.06 3055.27 1180.03 3057.77 1180.99 3060.34C1182.48 3064.48 1183.92 3068.68 1185.33 3072.92C1185.79 3074.32 1186.26 3075.71 1186.7 3077.1C1187.61 3079.85 1188.48 3082.62 1189.28 3085.43C1190.07 3088.23 1190.96 3091 1191.73 3093.85C1192.51 3096.69 1193.28 3099.23 1194 3101.98C1194.71 3104.73 1195.57 3107.98 1196.3 3111.04C1197.04 3114.1 1197.66 3116.63 1198.24 3119.46C1198.24 3119.77 1198.37 3120.12 1198.47 3120.46C1199.03 3123.02 1199.63 3125.63 1200.17 3128.21C1200.62 3130.14 1201.04 3132.19 1201.39 3134.21C1201.7 3135.62 1201.99 3137.03 1202.26 3138.47C1202.53 3139.9 1202.86 3141.43 1203.11 3142.94C1203.56 3145.22 1203.97 3147.51 1204.39 3149.85C1204.39 3150.33 1204.59 3150.85 1204.64 3151.34C1219.89 3152.45 1234.43 3158.24 1246.27 3167.91C1255.11 3174.95 1262.28 3183.86 1267.27 3194C1318.36 3180.54 1370.43 3171.15 1423 3165.93C1418.95 3159.68 1414.64 3153.54 1410.15 3147.47C1380.49 3107.58 1342.65 3074.51 1299.16 3050.45C1255.67 3026.4 1207.54 3011.92 1158 3008Z" fill="#E9AF58"/>
<path d="M885.29 3166.93C883.355 3167.58 881.576 3168.25 879.738 3168.88C877.9 3169.5 875.654 3170.39 873.661 3171.24L871.262 3172.25C870.39 3172.58 869.539 3172.96 868.709 3173.38C867.857 3173.71 867.026 3174.12 866.194 3174.5C864.975 3175.03 863.775 3175.63 862.575 3176.21C861.376 3176.79 860.639 3177.18 859.633 3177.67C858.259 3178.37 856.866 3179.08 855.512 3179.86C854.158 3180.64 852.61 3181.43 851.217 3182.29L848.972 3183.61C847.25 3184.64 845.586 3185.68 843.961 3186.79C842.336 3187.9 841.097 3188.73 839.723 3189.64C838.349 3190.56 836.492 3191.97 834.925 3193.21C834.839 3193.27 834.761 3193.33 834.693 3193.41C833.125 3194.57 831.635 3195.79 830.126 3197.04C825.568 3200.87 821.27 3205 817.26 3209.4C813.267 3213.75 809.593 3218.38 806.268 3223.26C795.824 3248.76 788.422 3275.41 784.211 3302.66C775.438 3358.79 780.419 3416.23 798.723 3470C894.192 3368.59 1014.78 3285.35 1155 3230.44C1147.74 3216.12 1145.87 3200.36 1149.95 3186.46C1143.31 3183.97 1136.71 3181.69 1130.1 3179.51C1128.65 3179.01 1127.17 3178.5 1125.7 3178.06C1123.58 3177.34 1121.43 3176.66 1119.3 3176.02C1118.18 3175.67 1117.06 3175.3 1115.91 3174.99C1112.22 3173.84 1108.48 3172.8 1104.81 3171.71L1103.67 3171.4C1100.61 3170.56 1097.55 3169.71 1094.49 3168.95C1091.44 3168.2 1088.98 3167.5 1086.29 3166.86C1082.96 3166.04 1079.65 3165.25 1076.36 3164.53C1074.83 3164.16 1073.31 3163.83 1071.82 3163.52C1067.31 3162.55 1062.82 3161.58 1058.39 3160.82C1055.7 3160.3 1053.03 3159.83 1050.36 3159.39C1047.11 3158.82 1043.88 3158.3 1040.68 3157.83L1031.92 3156.61C1029.25 3156.26 1026.64 3155.93 1023.99 3155.62L1022.5 3155.46L1014.5 3154.67L1010.75 3154.34L1007.04 3154.05C1004 3153.83 1000.96 3153.64 997.98 3153.49C995 3153.33 992.176 3153.21 989.428 3153.16C987.493 3153.06 985.365 3153.02 983.353 3153C982.269 3153 981.165 3153 980.101 3153C977.915 3153 975.709 3153 973.542 3153C970.892 3153 968.279 3153 965.667 3153.17C963.461 3153.17 961.294 3153.35 959.127 3153.46C957.772 3153.46 956.399 3153.6 955.064 3153.7C953.129 3153.79 951.058 3153.95 949.123 3154.13C946.55 3154.34 944.015 3154.59 941.48 3154.86L935.947 3155.48L934.167 3155.72C931.729 3156.05 929.35 3156.38 926.989 3156.75C926.919 3156.77 926.845 3156.77 926.775 3156.75C924.337 3157.15 921.9 3157.58 919.501 3158.03C914.741 3158.86 910.058 3159.87 905.472 3161C902.667 3161.7 899.939 3162.41 897.23 3163.15C895.411 3163.65 893.612 3164.2 891.832 3164.74C889.645 3165.48 887.457 3166.2 885.29 3166.93Z" fill="#399C97"/>
<path d="M920.456 3076.31C869.621 3114.19 830.049 3165.25 806 3224C809.328 3219.12 813.006 3214.49 817.001 3210.14C821.015 3205.73 825.317 3201.6 829.879 3197.77C831.389 3196.53 832.881 3195.3 834.45 3194.14C834.518 3194.06 834.597 3194 834.683 3193.94C836.251 3192.7 837.858 3191.54 839.485 3190.37C841.111 3189.21 842.274 3188.43 843.727 3187.52C845.179 3186.6 847.019 3185.36 848.742 3184.33L850.989 3183.01C852.383 3182.16 853.816 3181.38 855.288 3180.58C856.76 3179.79 858.038 3179.09 859.413 3178.39C860.4 3177.91 861.35 3177.4 862.357 3176.93C863.364 3176.47 864.759 3175.75 865.979 3175.23C866.812 3174.84 867.644 3174.43 868.496 3174.1C869.327 3173.68 870.179 3173.3 871.051 3172.97L873.453 3171.96C875.39 3171.11 877.463 3170.33 879.536 3169.59C881.608 3168.86 883.213 3168.22 885.092 3167.65C887.261 3166.91 889.451 3166.22 891.658 3165.54C893.44 3164.99 895.241 3164.45 897.062 3163.94C899.786 3163.17 902.535 3162.45 905.311 3161.79C909.901 3160.66 914.588 3159.65 919.352 3158.82C921.753 3158.37 924.193 3157.94 926.633 3157.54C926.703 3157.56 926.777 3157.56 926.847 3157.54C929.21 3157.17 931.592 3156.84 934.032 3156.51L935.813 3156.27L941.353 3155.65C943.89 3155.38 946.425 3155.13 949.001 3154.92C950.938 3154.74 952.875 3154.58 954.947 3154.49C956.283 3154.49 957.66 3154.29 959.015 3154.25C961.184 3154.14 963.353 3154.02 965.561 3153.96C968.175 3153.85 970.788 3153.81 973.442 3153.79C975.611 3153.79 977.82 3153.79 980.008 3153.79C981.073 3153.79 982.177 3153.79 983.261 3153.79C985.198 3153.79 987.308 3153.79 989.341 3153.94C992.169 3153.94 995.016 3154.12 997.901 3154.27C1000.79 3154.43 1003.93 3154.62 1006.97 3154.84L1010.68 3155.13L1014.44 3155.46C1017.11 3155.71 1019.75 3155.94 1022.44 3156.25L1023.93 3156.41C1026.58 3156.72 1029.2 3157.05 1031.87 3157.4C1034.54 3157.75 1037.68 3158.2 1040.64 3158.62C1043.61 3159.05 1047.05 3159.61 1050.33 3160.18C1053 3160.62 1055.67 3161.09 1058.36 3161.61C1062.8 3162.43 1067.29 3163.34 1071.8 3164.31C1073.29 3164.62 1074.83 3164.95 1076.36 3165.32C1079.65 3166.04 1082.96 3166.84 1086.29 3167.65C1088.98 3168.29 1091.73 3168.99 1094.5 3169.75C1097.27 3170.51 1100.62 3171.32 1103.68 3172.2L1104.82 3172.51C1108.54 3173.54 1112.24 3174.64 1115.94 3175.79C1117.08 3176.1 1118.21 3176.47 1119.33 3176.82C1121.46 3177.46 1123.61 3178.14 1125.74 3178.86C1127.21 3179.3 1128.68 3179.81 1130.14 3180.31C1136.76 3182.49 1143.36 3184.78 1150 3187.26C1151.74 3181.21 1154.66 3175.57 1158.59 3170.66C1169.37 3157.17 1186.22 3150.9 1204 3151.96C1204 3151.48 1203.84 3150.95 1203.75 3150.47C1203.32 3148.12 1202.92 3145.83 1202.47 3143.54C1202.22 3142.02 1201.93 3140.53 1201.62 3139.05C1201.31 3137.57 1201.06 3136.2 1200.75 3134.78C1200.4 3132.84 1199.97 3130.72 1199.53 3128.76C1198.98 3126.1 1198.38 3123.48 1197.82 3120.99C1197.72 3120.64 1197.65 3120.29 1197.59 3119.98C1196.91 3117.15 1196.25 3114.33 1195.65 3111.54C1195.05 3108.74 1194.14 3105.42 1193.35 3102.45C1192.55 3099.48 1191.86 3096.99 1191.08 3094.29C1190.31 3091.6 1189.46 3088.63 1188.62 3085.85C1187.79 3083.07 1186.92 3080.28 1186.05 3077.5C1185.6 3076.1 1185.14 3074.7 1184.67 3073.3C1183.26 3069.05 1181.82 3064.84 1180.33 3060.68C1179.38 3058.08 1178.4 3055.46 1177.43 3052.92C1176.46 3050.37 1175.49 3047.75 1174.39 3045.15C1173.28 3042.55 1172.34 3040.06 1171.27 3037.58C1166.93 3027.4 1162.28 3017.6 1157.33 3008.18C1072.73 3001.19 988.493 3025.42 920.456 3076.31Z" fill="#EFF0F1"/>
<path d="M1158.75 3170.78C1154.8 3175.68 1151.87 3181.32 1150.13 3187.36C1146.03 3201.24 1147.92 3216.98 1155.21 3231.28C1160.2 3240.98 1167.2 3249.51 1175.76 3256.31C1186.7 3265.21 1199.95 3270.85 1213.97 3272.57C1233.16 3274.76 1251.66 3268.58 1263.22 3254.19C1265.38 3251.53 1267.24 3248.63 1268.76 3245.55C1276.35 3230.33 1275.53 3211.65 1267.34 3194.84C1262.32 3184.69 1255.12 3175.77 1246.23 3168.71C1234.32 3159.03 1219.71 3153.24 1204.38 3152.12C1186.52 3151.05 1169.59 3157.31 1158.75 3170.78Z" fill="white"/>
<path d="M1267 3194.14C1275.18 3210.97 1276 3229.68 1268.42 3244.91C1368.5 3307.42 1438.7 3389.75 1462.45 3466C1478.84 3416.26 1483.84 3363.49 1477.08 3311.57C1470.32 3259.65 1451.98 3209.9 1423.4 3166C1370.6 3171.23 1318.3 3180.64 1267 3194.14Z" fill="#EFF0F1"/>
<path d="M1263.17 3253.75C1251.67 3268.14 1233.25 3274.32 1214.16 3272.13C1213.81 3314.46 1210.02 3356.69 1202.85 3398.4C1182.09 3520.4 1135.55 3626.84 1076 3702.76C1151.69 3714.68 1229.19 3701.3 1296.52 3664.68C1311.21 3656.65 1325.31 3647.57 1338.72 3637.53C1396.56 3594.5 1439.63 3534.55 1462 3465.96C1438.33 3389.75 1368.4 3307.47 1268.69 3245C1267.18 3248.11 1265.33 3251.05 1263.17 3253.75Z" fill="#DE6A5A"/>
<path d="M1155.38 3231C1014.72 3285.88 893.766 3369.08 798 3470.43C809.806 3504.8 826.883 3537.12 848.62 3566.24C903.346 3639.85 984.856 3688.97 1075.53 3703C1135.22 3627.08 1181.86 3520.66 1202.66 3398.6C1209.86 3356.88 1213.65 3314.65 1214 3272.32C1200.01 3270.6 1186.79 3264.95 1175.88 3256.04C1167.34 3249.25 1160.36 3240.71 1155.38 3231Z" fill="#EFF0F1"/>
<path d="M1952.59 3175.75L1935.14 3180.55L2041.4 3566.6L2058.85 3561.79L1952.59 3175.75Z" fill="#50372E"/>
<path d="M1888.23 2952.09L1770.42 3264.15C1740.51 3263.44 1710.68 3260.82 1681.11 3256.3L1888.23 2952.09Z" fill="#FFF5E9"/>
<path d="M2219.43 3112.43C2196.04 3131.09 2171.49 3148.24 2145.91 3163.76L1888.23 2952.09L2219.43 3112.43Z" fill="#FFF5E9"/>
<path d="M1888.23 2952.09L1879.67 3258.04C1862.32 3260.3 1845.56 3262 1829.46 3263C1808.53 3264.26 1788.74 3264.58 1770.41 3264.15L1888.23 2952.09Z" fill="#CD5747"/>
<path d="M2048.16 3212.93C2024.75 3222.54 2000.81 3230.85 1976.48 3237.82C1972.77 3238.87 1969.06 3239.9 1965.37 3240.89C1961.67 3241.89 1957.94 3242.85 1954.17 3243.77C1929.63 3249.89 1904.76 3254.65 1879.68 3258.02L1888.23 2952.06L2048.16 3212.93Z" fill="#FFF5E9"/>
<path d="M2145.91 3163.76C2130.21 3173.28 2112.95 3182.87 2094.17 3192.19C2079.72 3199.36 2064.38 3206.33 2048.16 3212.93L1888.23 2951.97L2145.91 3163.76Z" fill="#CD5747"/>
<path d="M2562.1 3873.82C2561.79 3930.74 2545.59 3986.45 2515.32 4034.65C2486.22 4081.01 2446.85 4120.04 2400.25 4148.72C2353.64 4177.41 2301.06 4194.99 2246.57 4200.09V4426.75C2235.58 4426.9 2224.56 4426.99 2213.5 4427C2188.98 4427 2164.54 4426.6 2140.19 4425.8V4200.09C2085.7 4194.98 2033.13 4177.41 1986.53 4148.72C1939.93 4120.03 1900.56 4081 1871.47 4034.65C1841.31 3986.62 1825.11 3931.15 1824.66 3874.43C1824.66 3873.64 1824.66 3872.82 1824.66 3872.03C1824.66 3867.72 1824.75 3863.4 1824.94 3859.07C1826.06 3832.97 1830.51 3807.13 1838.19 3782.16L1883.98 3633.42C1888.75 3617.94 1892.27 3602.1 1894.52 3586.05C1898.43 3558.14 1898.48 3529.82 1894.65 3501.9C1892.39 3485.3 1888.76 3468.91 1883.8 3452.9L1843.64 3323.08H2543.23L2503.06 3452.79C2498.09 3468.79 2494.46 3485.18 2492.2 3501.79C2488.37 3529.71 2488.42 3558.03 2492.33 3585.94C2494.58 3601.98 2498.1 3617.82 2502.87 3633.31L2548.64 3782.04C2556.37 3807.16 2560.82 3833.17 2561.89 3859.43C2562.07 3864.23 2562.14 3869.02 2562.1 3873.82Z" fill="#D2D5D9"/>
<path d="M2146.88 4155.93C2099.26 4151.47 2053.31 4136.11 2012.58 4111.04C1971.86 4085.97 1937.45 4051.86 1912.02 4011.35C1885.68 3969.37 1871.52 3920.89 1871.12 3871.33C1871.31 3866.81 1871.4 3862.28 1871.35 3857.89C1872.33 3835.06 1876.22 3812.46 1882.93 3790.62L1922.95 3660.63C1927.12 3647.1 1930.2 3633.26 1932.16 3619.24H2454.71C2456.68 3633.26 2459.76 3647.1 2463.92 3660.63L2503.91 3790.62C2510.67 3812.57 2514.57 3835.3 2515.52 3858.25C2515.52 3862.44 2515.52 3866.65 2515.72 3870.83C2515.45 3920.58 2501.29 3969.27 2474.84 4011.4C2449.42 4051.91 2415 4086.02 2374.27 4111.09C2333.54 4136.17 2287.59 4151.52 2239.97 4155.97L2146.88 4155.93Z" fill="#DE6A5A"/>
<path d="M2016.83 3881.83C2038.69 3881.83 2056.42 3864.1 2056.42 3842.24C2056.42 3820.37 2038.69 3802.65 2016.83 3802.65C1994.97 3802.65 1977.24 3820.37 1977.24 3842.24C1977.24 3864.1 1994.97 3881.83 2016.83 3881.83Z" fill="#EC856F"/>
<path d="M2250.96 4076.37C2294.69 4076.37 2330.14 4040.92 2330.14 3997.19C2330.14 3953.47 2294.69 3918.02 2250.96 3918.02C2207.24 3918.02 2171.79 3953.47 2171.79 3997.19C2171.79 4040.92 2207.24 4076.37 2250.96 4076.37Z" fill="#EC856F"/>
<path d="M2129.94 3739.31C2153.05 3739.31 2171.78 3720.57 2171.78 3697.46C2171.78 3674.35 2153.05 3655.61 2129.94 3655.61C2106.82 3655.61 2088.09 3674.35 2088.09 3697.46C2088.09 3720.57 2106.82 3739.31 2129.94 3739.31Z" fill="#EC856F"/>
<path d="M2324.48 3795.86C2340.1 3795.86 2352.76 3783.2 2352.76 3767.59C2352.76 3751.97 2340.1 3739.31 2324.48 3739.31C2308.86 3739.31 2296.2 3751.97 2296.2 3767.59C2296.2 3783.2 2308.86 3795.86 2324.48 3795.86Z" fill="#EC856F"/>
</g>
<defs>
<clipPath id="clip0_251_170">
<rect width="4427" height="4427" fill="white"/>
</clipPath>
</defs>
</svg>
